<?xml version="1.0" encoding="utf-8"?>
<!-- Generator: Adobe Illustrator 17.0.0, SVG Export Plug-In . SVG Version: 6.00 Build 0)  -->
<!DOCTYPE svg PUBLIC "-//W3C//DTD SVG 1.1//EN" "http://www.w3.org/Graphics/SVG/1.1/DTD/svg11.dtd">
<svg version="1.1" xmlns="http://www.w3.org/2000/svg" xmlns:xlink="http://www.w3.org/1999/xlink" x="0px" y="0px" width="500px"
	 height="500px" viewBox="0 0 500 500" enable-background="new 0 0 500 500" xml:space="preserve">
<g id="background_1">
	<g>
		<rect fill="#1534E0" width="500" height="466.03"/>
		<g>
			<path fill="#9E5523" d="M0,451.408c35.041,1.112,76.207-3.291,108.935-8.041l-0.369,6.854l189.551-4.763l-0.001,0.01L500,440.396
				v-83.212c-23.88-25.808-38.598-10.985-51.714-15.56c-15.902-5.548-26.705-32.629-47.27-44.536
				c-17.296-10.014-75.193,44.549-93.17,62.156c-22.359-22.05-36.477-8.46-49.11-12.867c-15.902-5.547-26.704-32.629-47.27-44.536
				c-7.836-4.537-24.008,4.187-41.025,16.72c-12.84-29.474-46.503-82.832-98.044,5.145C43.355,373.276,20.19,376.43,0,371.653
				V451.408z"/>
			<path fill="#BA682B" d="M230.853,325.881c20.566,11.907,31.368,38.989,47.27,44.536c12.632,4.407,26.751-9.183,49.109,12.867
				c17.977-17.607,75.875-72.17,93.171-62.156c20.566,11.907,31.368,38.989,47.27,44.536c9.143,3.19,19.065-3.049,32.327,1.622
				V357.19c-23.88-25.809-38.598-10.991-51.714-15.566c-15.902-5.548-26.705-32.629-47.27-44.536
				c-17.296-10.014-75.193,44.549-93.17,62.156c-22.359-22.05-36.477-8.46-49.11-12.867c-15.902-5.547-26.704-32.629-47.27-44.536
				c-7.256-4.201-21.66,2.971-37.264,14.006c6.798,8.372,12.029,18.5,15.626,26.755
				C206.844,330.068,223.017,321.344,230.853,325.881z"/>
			<path fill="#BA682B" d="M0,389.676c24.723,7.708,53.019,24.237,91.783-41.93c30.764-52.511,55.155-54.666,72.554-41.606
				c-15.851-28.594-47.14-58.906-91.941,17.565C43.355,373.276,20.19,376.43,0,371.653V389.676z"/>
		</g>
	</g>
	<g>
		<g>
			<path fill="#111111" d="M0,500h500v-87.971c-69.702-10.975-156.243-17.475-250-17.475s-180.298,6.5-250,17.475V500z"/>
		</g>
	</g>
	<g>
		<path fill="#FFFFFF" d="M164.39,51.234c-4.193,0-8.077,1.319-11.267,3.558c-2.698-12.651-13.933-22.14-27.389-22.14
			c-7.185,0-13.735,2.708-18.693,7.155c-3.632-5.438-9.82-9.02-16.848-9.02c-10.436,0-19.026,7.896-20.134,18.042
			c-1.435-0.485-2.97-0.751-4.568-0.751c-7.5,0-13.644,5.787-14.221,13.138c-1.4-0.435-2.886-0.677-4.429-0.677
			c-8.244,0-14.927,6.686-14.927,14.934s6.683,14.934,14.927,14.934c0.071,0,0.142-0.004,0.213-0.005v0.005h115.295
			c0.671,0.069,1.352,0.106,2.042,0.106c0.887,0,1.758-0.064,2.613-0.178c2.535-0.234,4.901-1.05,6.963-2.316
			c6.003-3.36,10.062-9.777,10.062-17.145C184.029,60.027,175.236,51.234,164.39,51.234z"/>
		<path fill="#FFFFFF" d="M51.027,233.389c1.462,0,2.804,0.513,3.857,1.368c1.06-3.399,4.231-5.866,7.979-5.866
			c4.373,0,7.959,3.359,8.324,7.637c0.637-0.309,1.353-0.483,2.109-0.483c2.672,0,4.838,2.166,4.838,4.838
			c0,2.672-2.166,4.838-4.838,4.838h-22.27v-0.082c-3.383,0-6.125-2.742-6.125-6.125C44.902,236.131,47.645,233.389,51.027,233.389z
			"/>
		<path fill="#FFFFFF" d="M456.306,59.734c0-7.76-6.291-14.051-14.051-14.051c-2.241,0-4.357,0.527-6.237,1.46
			c0.021-0.297,0.035-0.595,0.035-0.897c0-7.08-5.739-12.819-12.819-12.819c-5.525,0-10.232,3.495-12.034,8.394
			c-3.625-5.079-9.562-8.394-16.278-8.394c-10.46,0-19.037,8.035-19.911,18.268c-1.525-0.74-3.236-1.155-5.044-1.155
			c-6.391,0-11.571,5.181-11.571,11.571s5.181,11.571,11.571,11.571h70.613c0.55,0.065,1.108,0.103,1.675,0.103
			c0.567,0,1.126-0.038,1.675-0.103h0.702V73.58C451.259,72.451,456.306,66.683,456.306,59.734z"/>
		<path fill="#FFFFFF" d="M132.111,159.656c0-4.545,3.684-8.229,8.229-8.229c1.418,0,2.751,0.359,3.916,0.99
			c-0.055-0.416-0.086-0.839-0.086-1.27c0-5.318,4.311-9.629,9.629-9.629c1.746,0,3.383,0.467,4.795,1.28
			c0.494-5.8,5.355-10.355,11.283-10.355c2.046,0,3.964,0.546,5.621,1.495c3.041-2.479,6.922-3.967,11.152-3.967
			c8.889,0,16.242,6.567,17.478,15.114c0.714-0.235,1.474-0.366,2.267-0.366c2.448,0,4.607,1.216,5.921,3.072
			c1.676-1.055,3.658-1.667,5.785-1.667c6.009,0,10.88,4.872,10.88,10.881c0,6.009-4.871,10.88-10.88,10.88h-79.394v-0.163
			C134.943,166.963,132.111,163.641,132.111,159.656z"/>
		<path fill="#FFFFFF" d="M469.119,103.706c-2.141,0-4.105,0.751-5.647,2.003c-1.552-4.976-6.195-8.589-11.683-8.589
			c-6.402,0-11.653,4.918-12.188,11.182c-0.933-0.453-1.981-0.707-3.088-0.707c-3.912,0-7.083,3.171-7.083,7.083
			c0,3.912,3.171,7.083,7.083,7.083h32.605v-0.12c4.953,0,8.968-4.015,8.968-8.967C478.087,107.721,474.072,103.706,469.119,103.706
			z"/>
	</g>
	<g>
		<g>
			<g>
				<g>
					<path fill="#D84E5B" d="M375.019,317.975l-15.077,11.907l4.263,3.518l-12.576,8.702c0,0-10.321,10.365-3.824,20.464
						l39.536-25.436l-6.118-9.51L375.019,317.975z"/>
				</g>
				<g>
					
						<rect x="343.364" y="347.458" transform="matrix(0.841 -0.5411 0.5411 0.841 -130.3602 253.956)" fill="#FFFFFF" width="47.012" height="2.598"/>
				</g>
				<g>
					<g>
						
							<rect x="355.368" y="338.8" transform="matrix(0.841 -0.5411 0.5411 0.841 -128.1711 247.3174)" fill="#FFFFFF" width="2.603" height="5.826"/>
					</g>
					<g>
						
							<rect x="359.377" y="336.22" transform="matrix(0.841 -0.5411 0.5411 0.841 -126.1377 249.0767)" fill="#FFFFFF" width="2.603" height="5.826"/>
					</g>
					<g>
						
							<rect x="363.385" y="333.642" transform="matrix(0.841 -0.5411 0.5411 0.841 -124.1062 250.8396)" fill="#FFFFFF" width="2.602" height="5.826"/>
					</g>
				</g>
				<path fill="#FFFFFF" d="M350.931,342.35c-1.94,2.135-9.718,11.617-3.875,20.699l12.159-7.823L350.931,342.35z"/>
			</g>
			<g>
				<path opacity="0.2" d="M387.341,337.131l-1.405-2.185l0,0l-4.713-7.325l-6.204-9.646l-15.077,11.907l4.263,3.518l-2.189,1.408
					l0.047,0.074l-1.78,1.232l-0.087-0.135l-2.189,1.408l0.134,0.208l-1.782,1.233l-0.173-0.27l-2.189,1.408l0.221,0.343
					l-2.591,1.793c0,0-0.193,0.195-0.503,0.548l-0.194-0.301c-1.94,2.135-9.718,11.617-3.875,20.699l0.748-0.481h0L387.341,337.131z
					"/>
				<path fill="#C67138" d="M304.004,246.506c0,0-17.83,7.431-21.23,17.709c-3.401,10.277,76.506,62.983,76.506,62.983l10.811-9.893
					L304.004,246.506z"/>
			</g>
		</g>
		<g>
			<path fill="#CE814D" d="M315.897,172.035c0,0-10.91,31.306-18.499,36.524c-7.589,5.218-43.639,19.448-43.639,19.448
				l16.602-23.717l28.935-32.255H315.897z"/>
			<path fill="#E89C62" d="M278.424,172.035l-7.115,16.128l-9.598,7.589l-27.084,35.575l-19.29,6.166v11.226l11.542,1.265h6.166
				l3.241-6.325c0,0,27.857-13.281,46.381-41.267l18.64-30.358H278.424z"/>
		</g>
		<g>
			<polygon fill="#7B8785" points="354.91,259.799 372.893,262.573 374.507,257.253 			"/>
			<path fill="#665B59" d="M337.624,246.63c0,0-0.513-5.785,7.149-5.557c7.662,0.228,16.638,8.389,31.489,4.267
				c0,0,12.634-5.377,9.714,8.561c0,0-16.386,6.893-31.488,4.496C354.489,258.397,340.418,250.647,337.624,246.63z"/>
			<g>
				<g>
					<g>
						<g>
							<path fill="#303030" d="M171.197,316.447c6.359,19.477,12.717,38.953,19.076,58.43c0.138,0.423,0.822,0.205,0.62-0.146
								c-0.21-0.365-0.419-0.729-0.629-1.094c-0.939-1.634-1.878-3.268-2.817-4.901c-3.321-5.777-6.641-11.553-9.962-17.33
								c-5.096-8.865-10.192-17.731-15.288-26.596c-0.217-0.378-0.802-0.037-0.584,0.342c9.593,16.688,19.185,33.377,28.778,50.065
								c0.189,0.329,0.739,0.109,0.619-0.261c-6.387-19.563-12.774-39.126-19.161-58.689
								C171.714,315.854,171.061,316.031,171.197,316.447L171.197,316.447z"/>
						</g>
					</g>
					<g>
						<g>
							<path fill="#303030" d="M153.585,326.994c12.195,16.263,24.39,32.525,36.584,48.788c0.513,0.684,0.683-0.162-0.082-0.827
								c-1.354-1.177-2.708-2.354-4.063-3.531c-4.977-4.326-9.953-8.651-14.93-12.977c-7.753-6.739-15.506-13.478-23.259-20.217
								c-0.328-0.285-0.809,0.192-0.479,0.479c14.373,12.493,28.745,24.986,43.118,37.478c0.272,0.237,0.775-0.085,0.532-0.41
								c-12.279-16.375-24.558-32.749-36.836-49.124C153.911,326.307,153.323,326.644,153.585,326.994L153.585,326.994z"/>
						</g>
					</g>
					<g>
						<g>
							<path fill="#303030" d="M132.362,350.544c19.214,8.486,38.428,16.972,57.642,25.458c0.85,0.375,0.944-0.35-0.031-0.559
								c-1.774-0.381-3.549-0.762-5.323-1.142c-6.312-1.355-12.624-2.709-18.936-4.064c-10.903-2.34-21.806-4.68-32.709-7.02
								c-0.092-0.02-0.184-0.04-0.277-0.059c-0.426-0.091-0.607,0.561-0.18,0.653c19.358,4.155,38.716,8.309,58.074,12.464
								c0.355,0.076,0.628-0.456,0.261-0.619c-19.394-8.565-38.787-17.13-58.18-25.695
								C132.309,349.785,131.964,350.368,132.362,350.544L132.362,350.544z"/>
						</g>
					</g>
					<g>
						<g>
							<path fill="#303030" d="M128.621,375.725c20.488-0.073,40.977-0.146,61.465-0.219c0.455-0.002,0.41-0.714,0.02-0.631
								c-0.411,0.087-0.823,0.175-1.234,0.263c-1.843,0.392-3.686,0.785-5.53,1.177c-6.517,1.387-13.034,2.774-19.551,4.161
								c-10.002,2.129-20.003,4.257-30.005,6.386c-0.427,0.091-0.246,0.743,0.18,0.653c18.827-4.007,37.655-8.014,56.482-12.021
								c0.38-0.081,0.286-0.666-0.09-0.665c-20.579,0.073-41.158,0.147-61.737,0.22C128.184,375.05,128.184,375.727,128.621,375.725
								L128.621,375.725z"/>
						</g>
					</g>
					<g>
						<g>
							<path fill="#303030" d="M133.255,395.72c19.221-6.614,38.442-13.228,57.663-19.842c0.805-0.277,0.001-0.673-0.846-0.162
								c-1.536,0.927-3.072,1.855-4.608,2.783c-5.645,3.408-11.289,6.817-16.934,10.225c-8.794,5.31-17.587,10.62-26.381,15.93
								c-0.373,0.225-0.033,0.811,0.342,0.585c16.301-9.844,32.603-19.687,48.905-29.531c0.32-0.193,0.111-0.747-0.261-0.619
								c-19.353,6.66-38.707,13.319-58.06,19.979C132.664,395.208,132.841,395.862,133.255,395.72L133.255,395.72z"/>
						</g>
					</g>
					<g>
						<g>
							<path fill="#303030" d="M149.15,423.138c13.974-15.682,27.948-31.363,41.923-47.045c0.628-0.705-0.079-0.956-0.565-0.114
								c-0.907,1.572-1.814,3.143-2.721,4.715c-3.227,5.591-6.454,11.182-9.68,16.774c-5.574,9.658-11.148,19.316-16.722,28.975
								c-0.047,0.082-0.094,0.163-0.141,0.245c-0.219,0.379,0.366,0.72,0.585,0.342c9.896-17.148,19.793-34.296,29.689-51.444
								c0.189-0.327-0.271-0.703-0.532-0.41c-14.105,15.828-28.209,31.656-42.314,47.484
								C148.382,422.984,148.859,423.465,149.15,423.138L149.15,423.138z"/>
						</g>
					</g>
					<g>
						<g>
							<path fill="#303030" d="M168.408,433.741c7.579-19.035,15.158-38.07,22.737-57.105c0.167-0.421-0.511-0.667-0.581-0.27
								c-0.072,0.414-0.145,0.829-0.217,1.243c-0.324,1.856-0.648,3.713-0.972,5.569c-1.146,6.564-2.291,13.128-3.437,19.691
								c-1.758,10.074-3.516,20.147-5.274,30.22c-0.074,0.427,0.578,0.609,0.653,0.18c3.309-18.962,6.619-37.925,9.928-56.887
								c0.076-0.434-0.492-0.584-0.653-0.18c-7.612,19.119-15.225,38.239-22.837,57.358
								C167.593,433.967,168.248,434.141,168.408,433.741L168.408,433.741z"/>
						</g>
					</g>
					<g>
						<g>
							<path fill="#303030" d="M188.677,436.902c1.038-20.3,2.075-40.601,3.113-60.901c0.043-0.844-0.609-0.116-0.46,0.803
								c0.287,1.771,0.574,3.542,0.862,5.314c1.055,6.509,2.111,13.018,3.167,19.526c1.644,10.14,3.289,20.28,4.933,30.42
								c0.07,0.43,0.722,0.247,0.653-0.18c-3.048-18.797-6.097-37.595-9.145-56.392c-0.064-0.394-0.646-0.272-0.665,0.09
								c-1.045,20.44-2.09,40.881-3.134,61.321C187.978,437.338,188.655,437.336,188.677,436.902L188.677,436.902z"/>
						</g>
					</g>
					<g>
						<g>
							<path fill="#303030" d="M220.025,432.389c-9.333-18.817-18.666-37.634-27.999-56.452c-0.435-0.878-0.832-0.167-0.269,0.551
								c1.12,1.428,2.239,2.856,3.359,4.284c3.983,5.08,7.966,10.161,11.949,15.241c6.88,8.776,13.76,17.552,20.64,26.327
								c0.058,0.074,0.116,0.148,0.175,0.223c0.269,0.343,0.745-0.139,0.479-0.479c-12.215-15.581-24.431-31.163-36.646-46.744
								c-0.25-0.319-0.692,0.086-0.532,0.41c9.42,18.993,18.84,37.986,28.26,56.978
								C219.635,433.121,220.218,432.778,220.025,432.389L220.025,432.389z"/>
						</g>
					</g>
					<g>
						<g>
							<path fill="#303030" d="M239.065,415.511c-15.79-13.056-31.579-26.112-47.369-39.169c-0.335-0.277-0.836,0.245-0.473,0.435
								c0.372,0.196,0.744,0.392,1.116,0.588c1.667,0.878,3.335,1.757,5.002,2.635c5.895,3.105,11.79,6.21,17.686,9.315
								c9.047,4.766,18.095,9.531,27.142,14.296c0.386,0.203,0.728-0.381,0.342-0.585c-17.031-8.97-34.062-17.941-51.093-26.912
								c-0.326-0.172-0.719,0.276-0.41,0.532c15.86,13.114,31.719,26.228,47.579,39.342
								C238.92,416.265,239.402,415.789,239.065,415.511L239.065,415.511z"/>
						</g>
					</g>
					<g>
						<g>
							<path fill="#303030" d="M248.228,397.143c-19.002-7.219-38.004-14.438-57.006-21.657c-0.794-0.302-0.408,0.529,0.561,0.676
								c1.774,0.27,3.548,0.541,5.321,0.811c6.519,0.993,13.037,1.987,19.556,2.98c10.155,1.548,24.322,3.836,34.477,5.384
								c0.427,0.065,0.61-0.587,0.18-0.653c-18.826-2.869-41.662-6.479-60.488-9.348c-0.43-0.065-0.592,0.496-0.18,0.653
								c19.133,7.269,38.266,14.538,57.398,21.806C248.457,397.951,248.632,397.296,248.228,397.143L248.228,397.143z"/>
						</g>
					</g>
					<g>
						<g>
							<path fill="#303030" d="M253.552,365.931c-20.774,3.106-41.547,6.212-62.321,9.318c-0.949,0.142-0.498,0.775,0.395,0.446
								c1.703-0.627,3.406-1.254,5.108-1.882c6.058-2.231,12.116-4.462,18.173-6.693c10.464-3.854,20.928-7.708,31.392-11.562
								c0.089-0.033,0.177-0.065,0.266-0.098c0.406-0.15,0.231-0.804-0.18-0.653c-18.579,6.843-37.157,13.685-55.736,20.528
								c-0.416,0.153-0.248,0.717,0.18,0.653c20.968-3.135,41.935-6.27,62.903-9.405
								C254.162,366.519,253.979,365.867,253.552,365.931L253.552,365.931z"/>
						</g>
					</g>
					<g>
						<g>
							<path fill="#303030" d="M246.481,347.556c-18.296,9.221-36.592,18.442-54.888,27.663c-0.417,0.21-0.01,0.796,0.297,0.551
								c0.329-0.262,0.658-0.524,0.987-0.786c1.474-1.175,2.947-2.349,4.421-3.524c5.21-4.153,10.421-8.306,15.631-12.459
								c7.996-6.374,15.993-12.747,23.989-19.121c0.341-0.272-0.141-0.748-0.479-0.479c-15.052,11.998-30.105,23.996-45.157,35.994
								c-0.316,0.252,0.086,0.695,0.41,0.532c18.377-9.262,36.754-18.524,55.132-27.785
								C247.212,347.944,246.869,347.36,246.481,347.556L246.481,347.556z"/>
						</g>
					</g>
					<g>
						<g>
							<path fill="#303030" d="M233.407,331.742c-14.239,14.506-28.479,29.012-42.718,43.519c-0.594,0.605,0.335,0.555,0.851-0.259
								c0.96-1.516,1.919-3.032,2.879-4.548c3.527-5.572,7.053-11.143,10.579-16.715c5.494-8.68,10.988-17.36,16.482-26.04
								c0.234-0.37-0.352-0.709-0.585-0.342c-10.184,16.091-20.369,32.182-30.553,48.273c-0.208,0.328,0.264,0.683,0.532,0.41
								c14.337-14.606,28.675-29.212,43.012-43.818C234.191,331.909,233.713,331.43,233.407,331.742L233.407,331.742z"/>
						</g>
					</g>
					<g>
						<g>
							<path fill="#303030" d="M206.942,314.322c-5.494,20.273-10.987,40.547-16.481,60.82c-0.251,0.928,0.505,0.753,0.562-0.19
								c0.109-1.811,0.218-3.623,0.327-5.434c0.388-6.444,0.776-12.888,1.164-19.332c0.67-11.131,1.341-22.262,2.011-33.393
								c0.006-0.094,0.011-0.188,0.017-0.283c0.026-0.436-0.651-0.434-0.677,0c-1.19,19.763-2.38,39.526-3.571,59.289
								c-0.023,0.388,0.567,0.452,0.665,0.09c5.545-20.463,11.09-40.925,16.635-61.388
								C207.709,314.079,207.056,313.901,206.942,314.322L206.942,314.322z"/>
						</g>
					</g>
					<g>
						<g>
							<path fill="#303030" d="M182.64,313.383c2.575,20.412,5.151,40.825,7.726,61.237c0.054,0.427,0.732,0.432,0.677,0
								c-2.576-20.412-5.151-40.825-7.727-61.237C183.263,312.956,182.585,312.951,182.64,313.383L182.64,313.383z"/>
						</g>
					</g>
				</g>
				<g>
					<path fill="#93A5A3" d="M191.985,318.361c14.991,0,29.193,5.694,39.991,16.033c10.8,10.341,17.022,24.229,17.519,39.105
						c1.05,31.445-23.93,57.891-55.684,58.951c-0.668,0.022-1.316,0.033-1.983,0.033c-14.991,0-29.193-5.694-39.991-16.033
						c-10.8-10.341-17.022-24.229-17.518-39.105c-1.05-31.445,23.93-57.891,55.684-58.952
						C190.669,318.371,191.318,318.361,191.985,318.361 M191.985,308.432c-0.771,0-1.539,0.013-2.315,0.039
						c-37.285,1.245-66.51,32.23-65.275,69.206c1.209,36.207,31.18,64.736,67.432,64.736c0.771,0,1.539-0.013,2.315-0.039
						c37.285-1.245,66.51-32.23,65.275-69.206C258.208,336.961,228.237,308.432,191.985,308.432L191.985,308.432z"/>
				</g>
				<g>
					<path fill="#282828" d="M191.833,444.669c-0.002,0-0.004,0-0.006,0c-18.147-0.002-35.342-6.898-48.418-19.419
						c-13.113-12.554-20.667-29.423-21.27-47.499c-0.617-18.489,6.061-36.113,18.806-49.625
						c12.74-13.507,30.017-21.288,48.649-21.911c19.064-0.631,37.158,6.307,50.809,19.378c13.112,12.554,20.665,29.424,21.269,47.5
						c1.275,38.16-28.986,70.251-67.455,71.536C193.417,444.655,192.627,444.669,191.833,444.669z M191.985,310.689
						c-0.746,0-1.49,0.012-2.24,0.038c-17.434,0.582-33.599,7.861-45.517,20.496c-11.913,12.63-18.156,29.101-17.579,46.379
						c1.171,35.074,29.8,62.551,65.178,62.555c0.002,0,0.004,0,0.006,0c0.743,0,1.483-0.012,2.232-0.038
						c35.982-1.201,64.287-31.202,63.096-66.875C255.99,338.166,227.361,310.689,191.985,310.689z"/>
				</g>
				<g>
					<circle fill="#93A5A3" cx="191.669" cy="374.241" r="8.25"/>
				</g>
				<g>
					<circle fill="#282828" cx="191.669" cy="374.241" r="4.285"/>
				</g>
			</g>
			<g>
				<g>
					<g>
						<g>
							<path fill="#303030" d="M390.972,313.938c6.359,19.477,12.717,38.954,19.076,58.43c0.138,0.423,0.822,0.205,0.62-0.146
								c-0.21-0.365-0.419-0.729-0.629-1.094c-0.939-1.634-1.878-3.268-2.817-4.902c-3.32-5.777-6.641-11.553-9.962-17.33
								c-5.096-8.865-10.192-17.731-15.288-26.596c-0.217-0.378-0.803-0.038-0.585,0.342c9.593,16.688,19.185,33.377,28.778,50.065
								c0.189,0.329,0.739,0.109,0.619-0.261c-6.387-19.563-12.774-39.126-19.161-58.689
								C391.49,313.345,390.836,313.521,390.972,313.938L390.972,313.938z"/>
						</g>
					</g>
					<g>
						<g>
							<path fill="#303030" d="M373.36,324.484c12.195,16.263,24.39,32.525,36.584,48.788c0.513,0.684,0.683-0.162-0.082-0.827
								c-1.354-1.177-2.708-2.354-4.063-3.531c-4.977-4.326-9.953-8.652-14.93-12.977c-7.753-6.739-15.506-13.478-23.259-20.217
								c-0.328-0.285-0.809,0.192-0.479,0.479c14.372,12.493,28.745,24.986,43.118,37.478c0.272,0.237,0.775-0.085,0.532-0.41
								c-12.279-16.375-24.558-32.75-36.836-49.124C373.686,323.798,373.098,324.135,373.36,324.484L373.36,324.484z"/>
						</g>
					</g>
					<g>
						<g>
							<path fill="#303030" d="M352.138,348.035c19.214,8.486,38.428,16.972,57.642,25.457c0.85,0.375,0.944-0.35-0.031-0.559
								c-1.774-0.381-3.548-0.762-5.323-1.142c-6.312-1.355-12.624-2.709-18.935-4.064c-10.903-2.34-21.806-4.68-32.709-7.02
								c-0.092-0.02-0.185-0.04-0.277-0.059c-0.426-0.091-0.607,0.561-0.18,0.653c19.358,4.155,38.716,8.309,58.074,12.464
								c0.355,0.076,0.629-0.456,0.261-0.619c-19.393-8.565-38.787-17.13-58.18-25.695
								C352.084,347.276,351.739,347.859,352.138,348.035L352.138,348.035z"/>
						</g>
					</g>
					<g>
						<g>
							<path fill="#303030" d="M348.396,373.216c20.488-0.073,40.977-0.146,61.465-0.219c0.455-0.002,0.41-0.714,0.02-0.631
								c-0.411,0.088-0.823,0.175-1.234,0.263c-1.843,0.392-3.686,0.785-5.53,1.177c-6.517,1.387-13.034,2.774-19.551,4.161
								c-10.002,2.129-20.004,4.257-30.005,6.386c-0.427,0.091-0.246,0.743,0.18,0.653c18.827-4.007,37.655-8.014,56.482-12.021
								c0.38-0.081,0.286-0.666-0.09-0.665c-20.579,0.073-41.158,0.147-61.737,0.22C347.96,372.541,347.959,373.218,348.396,373.216
								L348.396,373.216z"/>
						</g>
					</g>
					<g>
						<g>
							<path fill="#303030" d="M353.03,393.211c19.221-6.614,38.442-13.228,57.663-19.842c0.805-0.277,0.001-0.673-0.846-0.162
								c-1.536,0.927-3.072,1.855-4.608,2.783c-5.645,3.408-11.289,6.817-16.934,10.225c-8.794,5.31-17.587,10.62-26.381,15.93
								c-0.373,0.225-0.033,0.811,0.342,0.585c16.301-9.844,32.603-19.688,48.904-29.531c0.321-0.194,0.111-0.747-0.261-0.619
								c-19.353,6.66-38.707,13.319-58.06,19.979C352.44,392.699,352.616,393.353,353.03,393.211L353.03,393.211z"/>
						</g>
					</g>
					<g>
						<g>
							<path fill="#303030" d="M368.925,420.629c13.974-15.682,27.948-31.363,41.923-47.045c0.628-0.705-0.079-0.956-0.565-0.114
								c-0.907,1.572-1.814,3.143-2.721,4.715c-3.227,5.591-6.454,11.182-9.68,16.774c-5.574,9.658-11.148,19.316-16.722,28.975
								c-0.047,0.082-0.094,0.163-0.141,0.245c-0.219,0.379,0.366,0.719,0.585,0.342c9.896-17.148,19.793-34.296,29.689-51.444
								c0.189-0.327-0.271-0.703-0.532-0.41c-14.105,15.828-28.209,31.656-42.314,47.484
								C368.157,420.475,368.634,420.955,368.925,420.629L368.925,420.629z"/>
						</g>
					</g>
					<g>
						<g>
							<path fill="#303030" d="M388.183,431.231c7.579-19.035,15.158-38.07,22.737-57.105c0.168-0.421-0.511-0.667-0.58-0.27
								c-0.072,0.414-0.145,0.829-0.217,1.243c-0.324,1.857-0.648,3.713-0.972,5.569c-1.146,6.564-2.291,13.128-3.437,19.691
								c-1.758,10.073-3.516,20.147-5.274,30.22c-0.074,0.427,0.578,0.609,0.653,0.18c3.31-18.962,6.619-37.925,9.928-56.887
								c0.076-0.434-0.492-0.584-0.653-0.18c-7.613,19.119-15.225,38.239-22.838,57.358
								C387.369,431.457,388.024,431.632,388.183,431.231L388.183,431.231z"/>
						</g>
					</g>
					<g>
						<g>
							<path fill="#303030" d="M408.452,434.392c1.038-20.3,2.075-40.601,3.113-60.901c0.043-0.844-0.609-0.116-0.46,0.803
								c0.287,1.771,0.575,3.542,0.862,5.313c1.055,6.509,2.111,13.018,3.166,19.526c1.644,10.14,3.289,20.28,4.933,30.42
								c0.07,0.43,0.722,0.247,0.653-0.18c-3.048-18.797-6.097-37.595-9.145-56.392c-0.064-0.394-0.646-0.272-0.665,0.09
								c-1.045,20.44-2.09,40.881-3.134,61.321C407.753,434.829,408.43,434.827,408.452,434.392L408.452,434.392z"/>
						</g>
					</g>
					<g>
						<g>
							<path fill="#303030" d="M439.801,429.879c-9.333-18.817-18.666-37.634-27.999-56.452c-0.435-0.878-0.832-0.167-0.269,0.551
								c1.12,1.428,2.239,2.856,3.359,4.284c3.983,5.08,7.966,10.161,11.949,15.241c6.88,8.776,13.76,17.552,20.64,26.327
								c0.058,0.074,0.116,0.148,0.175,0.223c0.269,0.343,0.745-0.139,0.479-0.479c-12.215-15.581-24.431-31.163-36.646-46.744
								c-0.25-0.319-0.692,0.086-0.532,0.41c9.42,18.993,18.84,37.986,28.26,56.978C439.41,430.612,439.994,430.269,439.801,429.879
								L439.801,429.879z"/>
						</g>
					</g>
					<g>
						<g>
							<path fill="#303030" d="M458.84,413.001c-15.79-13.056-31.579-26.112-47.369-39.169c-0.335-0.277-0.836,0.245-0.473,0.435
								c0.372,0.196,0.744,0.392,1.116,0.588c1.667,0.878,3.335,1.756,5.002,2.635c5.895,3.105,11.791,6.21,17.686,9.315
								c9.047,4.766,18.095,9.531,27.142,14.296c0.386,0.203,0.728-0.381,0.342-0.585c-17.031-8.971-34.062-17.941-51.093-26.912
								c-0.326-0.172-0.719,0.276-0.41,0.532c15.86,13.114,31.719,26.228,47.579,39.342
								C458.695,413.756,459.177,413.28,458.84,413.001L458.84,413.001z"/>
						</g>
					</g>
					<g>
						<g>
							<path fill="#303030" d="M468.003,394.634c-19.002-7.219-38.004-14.438-57.006-21.657c-0.794-0.302-0.408,0.529,0.561,0.676
								c1.774,0.27,3.548,0.541,5.321,0.811c6.519,0.993,13.037,1.987,19.556,2.98c10.155,1.548,20.311,3.095,30.466,4.643
								c0.427,0.065,0.61-0.587,0.18-0.653c-18.826-2.869-37.651-5.738-56.477-8.607c-0.43-0.065-0.592,0.496-0.18,0.653
								c19.133,7.269,38.266,14.538,57.398,21.806C468.232,395.442,468.407,394.787,468.003,394.634L468.003,394.634z"/>
						</g>
					</g>
					<g>
						<g>
							<path fill="#303030" d="M473.327,363.422c-20.774,3.106-41.547,6.212-62.321,9.318c-0.949,0.142-0.498,0.775,0.395,0.446
								c1.703-0.627,3.406-1.254,5.108-1.882c6.058-2.231,12.116-4.462,18.173-6.693c10.464-3.854,20.928-7.708,31.392-11.562
								c0.089-0.033,0.177-0.065,0.266-0.098c0.406-0.15,0.231-0.804-0.18-0.653c-18.579,6.843-37.157,13.685-55.736,20.528
								c-0.416,0.153-0.248,0.717,0.18,0.653c20.968-3.135,41.935-6.27,62.903-9.405
								C473.938,364.01,473.754,363.358,473.327,363.422L473.327,363.422z"/>
						</g>
					</g>
					<g>
						<g>
							<path fill="#303030" d="M466.256,345.047c-18.296,9.221-36.592,18.442-54.888,27.663c-0.417,0.21-0.01,0.796,0.297,0.551
								c0.329-0.262,0.658-0.524,0.987-0.786c1.474-1.175,2.947-2.349,4.421-3.524c5.21-4.153,10.421-8.306,15.631-12.459
								c7.996-6.374,15.993-12.747,23.989-19.121c0.341-0.272-0.141-0.748-0.479-0.479c-15.052,11.998-30.105,23.996-45.157,35.994
								c-0.316,0.252,0.086,0.695,0.41,0.532c18.377-9.262,36.754-18.524,55.132-27.785
								C466.988,345.435,466.645,344.851,466.256,345.047L466.256,345.047z"/>
						</g>
					</g>
					<g>
						<g>
							<path fill="#303030" d="M453.182,329.233c-14.239,14.506-28.479,29.012-42.718,43.518c-0.594,0.605,0.335,0.555,0.851-0.259
								c0.96-1.516,1.919-3.032,2.879-4.548c3.527-5.572,7.053-11.143,10.579-16.715c5.494-8.68,10.988-17.36,16.482-26.04
								c0.234-0.37-0.352-0.709-0.585-0.342c-10.184,16.091-20.369,32.182-30.553,48.273c-0.208,0.328,0.264,0.682,0.532,0.41
								c14.337-14.606,28.675-29.212,43.012-43.818C453.967,329.4,453.488,328.921,453.182,329.233L453.182,329.233z"/>
						</g>
					</g>
					<g>
						<g>
							<path fill="#303030" d="M426.717,311.812c-5.494,20.273-10.987,40.547-16.481,60.82c-0.251,0.928,0.505,0.753,0.562-0.189
								c0.109-1.811,0.218-3.623,0.327-5.434c0.388-6.444,0.776-12.888,1.164-19.332c0.67-11.131,1.341-22.262,2.011-33.393
								c0.006-0.094,0.011-0.188,0.017-0.283c0.026-0.436-0.651-0.434-0.677,0c-1.19,19.763-2.38,39.526-3.571,59.289
								c-0.023,0.388,0.567,0.452,0.665,0.09c5.545-20.463,11.09-40.925,16.635-61.388
								C427.484,311.57,426.831,311.391,426.717,311.812L426.717,311.812z"/>
						</g>
					</g>
					<g>
						<g>
							<path fill="#303030" d="M402.415,310.874c2.575,20.412,5.151,40.825,7.726,61.237c0.054,0.427,0.732,0.432,0.677,0
								c-2.575-20.412-5.151-40.825-7.726-61.237C403.038,310.447,402.361,310.441,402.415,310.874L402.415,310.874z"/>
						</g>
					</g>
				</g>
				<g>
					<path fill="#93A5A3" d="M411.76,315.851c14.991,0,29.193,5.694,39.991,16.033c10.8,10.341,17.022,24.229,17.519,39.105
						c1.05,31.445-23.93,57.891-55.684,58.951c-0.668,0.022-1.316,0.033-1.983,0.033c-14.991,0-29.193-5.694-39.991-16.033
						c-10.8-10.341-17.022-24.229-17.518-39.105c-1.05-31.445,23.93-57.891,55.684-58.951
						C410.445,315.862,411.093,315.851,411.76,315.851 M411.76,305.923c-0.771,0-1.539,0.013-2.315,0.039
						c-37.285,1.245-66.51,32.23-65.275,69.206c1.209,36.206,31.18,64.735,67.432,64.735c0.771,0,1.539-0.013,2.315-0.039
						c37.285-1.245,66.51-32.229,65.275-69.206C477.983,334.452,448.012,305.923,411.76,305.923L411.76,305.923z"/>
				</g>
				<g>
					<path fill="#282828" d="M411.609,442.159c-0.003,0-0.004,0-0.006,0c-18.146-0.002-35.341-6.898-48.418-19.419
						c-13.112-12.554-20.666-29.423-21.27-47.499c-0.617-18.489,6.062-36.113,18.806-49.625
						c12.74-13.507,30.017-21.288,48.649-21.911c0.801-0.026,1.595-0.04,2.391-0.04c18.146,0,35.341,6.895,48.417,19.417
						c13.112,12.554,20.666,29.424,21.27,47.5c1.274,38.16-28.986,70.251-67.456,71.536
						C413.193,442.146,412.402,442.159,411.609,442.159z M411.761,308.179c-0.746,0-1.49,0.012-2.241,0.038
						c-17.433,0.582-33.598,7.861-45.516,20.496c-11.913,12.63-18.156,29.101-17.578,46.379c1.171,35.074,29.8,62.551,65.177,62.555
						c0.003,0,0.004,0,0.006,0c0.744,0,1.483-0.012,2.233-0.038c35.982-1.201,64.287-31.202,63.095-66.875
						C475.765,335.656,447.136,308.179,411.761,308.179z"/>
				</g>
				<g>
					<circle fill="#93A5A3" cx="411.445" cy="371.732" r="8.25"/>
				</g>
				<g>
					<circle fill="#282828" cx="411.445" cy="371.732" r="4.285"/>
				</g>
			</g>
			<path fill="#830213" d="M413.392,372.445c-12.886-12.822-28.041-23.697-42.358-34.833c-10.364-8.061-20.786-16.049-31.269-23.954
				c0.675-2.726,8.662-43.08,9.336-45.806c0.75-3.029-3.944-6.664-4.693-3.637c-3.007,12.15-13.299,64.279-16.307,76.429
				c-4.441-5.052-9.712-9.424-14.945-13.6c-23.475-18.733-49.805-34.268-76.046-48.787c-0.384-0.213-0.769-0.425-1.155-0.635
				c-1.319-0.72-3.196-0.121-3.554,1.446c-3.013,13.204-6.948,26.25-11.345,39.051c-3.748,10.913-8.027,21.665-13.272,31.95
				c-4.438,8.701-9.711,17.487-17.244,23.865c-2.385,2.019,1.056,5.424,3.421,3.421c7.577-6.415,12.926-15.206,17.507-23.894
				c5.406-10.251,9.686-21.11,13.545-32.023c3.153-8.916,6.026-17.982,8.535-27.133c23.234,17.073,43.566,37.945,61.134,60.759
				c8.086,10.501,15.94,21.492,22.358,33.118c0.416,0.753,1.161,1.124,1.927,1.163c0.143,0.012,0.288,0.003,0.437-0.011
				c0.018-0.002,0.036-0.003,0.055-0.006c0.105-0.012,0.207-0.008,0.314-0.034c29.973-7.261,61.153-10.787,91.91-12.718
				C413.727,376.446,414.961,374.007,413.392,372.445z M367.612,341.033c12.896,10.021,26.451,19.858,38.433,31.076
				c-27.996,1.936-56.287,5.287-83.62,11.596c2.523-10.191,5.045-20.383,7.568-30.575c0.49-1.979,0.98-3.958,1.47-5.937v0
				c2.348-9.486,4.696-18.971,7.044-28.457C348.26,326.1,357.962,333.534,367.612,341.033z M234.877,289.312
				c0.51-1.977,1-3.958,1.473-5.942c22.855,12.587,45.339,26.294,66.357,41.733c6.621,4.864,13.083,10.011,18.941,15.781
				c1.128,1.111,2.21,2.267,3.265,3.446c1.124,1.256,1.544,2.949,2.019,1.032c-0.33,1.334-0.661,2.669-0.991,4.003
				c-2.573,10.394-5.146,20.789-7.718,31.183c-5.998-10.047-12.957-19.607-20.064-28.837
				C280.021,328.157,258.958,306.799,234.877,289.312z"/>
			<circle fill="#93A5A3" cx="317.713" cy="383.814" r="16.367"/>
			<circle fill="#7D8C8A" cx="318.286" cy="384.387" r="13.463"/>
			<polygon fill="#887E77" points="232.097,277.319 238.302,278.917 240.477,271.804 233.678,270.381 			"/>
			<path fill="#5B5551" d="M238.98,271.491c-0.695,2.455-1.666,4.744-2.866,6.863l2.188,0.564l2.176-7.113L238.98,271.491z"/>
			<polygon fill="#887E77" points="234.627,272.279 239.528,255.044 243.798,256.309 237.315,273.385 			"/>
			<polygon fill="#5B5551" points="236.913,270.978 242.28,255.86 243.798,256.309 238.104,271.308 			"/>
			<polygon fill="#887E77" points="226.88,249.985 237.631,265.48 239.212,260.262 230.832,248.72 			"/>
			<path fill="none" stroke="#47423F" stroke-miterlimit="10" d="M306.063,372.319c-32.128-48.269-64.795-68.26-70.487-70.632
				c-5.692-2.372-24.665-12.649-24.665-29.093s10.752-21.82,10.752-21.82s-13.44,2.211-13.123,23.874
				c0.316,21.663,29.224,23.768,40.477,33.783C281.586,337.421,306.063,372.319,306.063,372.319z"/>
			<path fill="#5B5551" d="M232.358,246.506l-0.011-0.008c0.435-0.707,0.699-1.532,0.699-2.423c0-2.565-2.079-4.644-4.644-4.644
				c-1.233,0-2.354,0.481-3.186,1.265c-0.169,0.159-0.313,0.342-0.456,0.525l-0.009-0.007l-0.041,0.065
				c-0.118,0.156-0.217,0.324-0.315,0.494l-1.336,2.096l0.735,0.56c0.183,2.397,2.165,4.292,4.609,4.292
				c0.31,0,0.611-0.033,0.904-0.091l1.131,0.862l1.809-2.809c0.006-0.009,0.011-0.018,0.017-0.026L232.358,246.506z"/>
			
				<line fill="none" stroke="#4C4C4C" stroke-width="4" stroke-linecap="round" stroke-miterlimit="10" x1="315.069" y1="381.419" x2="320.357" y2="409.691"/>
			
				<rect x="304.924" y="409.323" transform="matrix(0.9961 -0.0886 0.0886 0.9961 -35.252 29.998)" fill="#93A5A3" width="30.709" height="5.525"/>
			
				<rect x="305.081" y="412.856" transform="matrix(0.9961 -0.0886 0.0886 0.9961 -35.4076 30.0188)" fill="#7D8C8A" width="30.709" height="1.985"/>
			<circle fill="#9B9591" cx="226.88" cy="246.506" r="4.644"/>
		</g>
		<g>
			<path fill="#C67138" d="M288.361,135.512c0,0-1.694-5.993-12.991-12.134l22.832-15.98l12.905,18.077L288.361,135.512z"/>
			<path fill="#E89C62" d="M312.602,278.917c0,0-12.051,27.375-11.256,31.634c0.795,4.26,19.768,83.014,19.768,83.014
				s9.181,6.329,12.965-3.386c0,0-0.353-50.851-1.52-56.845c-1.167-5.994-8.754-20.273-8.754-20.273l43.215-59.299L312.602,278.917z
				"/>
			<path fill="#CE814D" d="M323.806,313.061l43.215-59.299l-24.473,11.313l-29.623,49.436c0,0,8.839,13.54,10.539,19.405
				c1.7,5.865,6.618,56.479,6.618,56.479c-0.79,2.732-2.088,4.305-3.557,5.157c2.688,0.252,5.741-0.716,7.554-5.372
				c0,0-0.353-50.851-1.52-56.845C331.394,327.34,323.806,313.061,323.806,313.061z"/>
			<path fill="#E0C899" d="M309.256,282.082c0,0,21.126,13.281,32.62,13.281c0,0,24.587-36.524,40.097-53.126
				c0,0,7.446-12.807,2.229-23.717l-50.122,5.218l-36.682,22.768l20.315,14.23L309.256,282.082z"/>
			<path fill="#E0C899" d="M309.256,282.082c0,0,21.126,13.281,32.62,13.281c0,0,24.587-36.524,40.097-53.126
				c0,0,7.446-12.807,2.229-23.717l-50.122,5.218l-36.682,22.768l20.315,14.23L309.256,282.082z"/>
			<path fill="#CEAE74" d="M384.201,218.52l-10.181,1.06c2.017,9.731-3.647,19.477-3.647,19.477
				c-15.51,16.602-40.097,53.126-40.097,53.126c-0.48,0-0.982-0.031-1.493-0.075c4.678,1.872,9.386,3.256,13.093,3.256
				c0,0,24.587-36.524,40.097-53.126C381.973,242.237,389.419,229.43,384.201,218.52z"/>
			<polygon fill="#CEAE74" points="336.286,232.487 334.08,223.738 297.398,246.506 317.713,260.737 			"/>
			<path fill="#D84E5B" d="M276.052,172.035c0,0,12.584,7.318,21.345,6.369l3.911-6.369c0,0,24.391,39.37,32.771,51.703
				c0,0,37.315,8.064,50.122-5.218c0,0-32.161-82.535-57.822-91.547c-25.661-9.012-33.251,0-39.417,8.538
				C280.796,144.049,276.052,172.035,276.052,172.035z"/>
			<path fill="#BA3246" d="M326.379,126.973c-12.475-4.381-20.677-4.501-26.522-2.488c11.25,0.989,17.701,7.258,16.985,17.501
				c-0.518,7.405-14.766,29.435-15.533,30.049c5.106,8.222,20.24,41.056,27.474,51.703c0,0,42.612,8.064,55.419-5.218
				C384.201,218.52,352.04,135.986,326.379,126.973z"/>
			<path fill="#566B96" d="M322.982,123.806c0,0,20.219,20.718,44.04,84.279c0,0,11.403,13.756,19.035,10.435
				c7.632-3.32,23.285-8.538,21.862-18.499s-20.871-49.908-43.165-68.593L322.982,123.806z"/>
			<g>
				<path fill="#566B96" d="M320.945,222.487l-4.617-8.863c3.812-5.68,4.978-25.588,5.107-32.779l4.128,0.107
					C325.512,183.774,326.329,214.463,320.945,222.487z"/>
			</g>
			<path fill="#E89C62" d="M298.69,106.405c0,0-7.191,23.954-32.659,20.446c0,0-18.022-3.59-11.806-37.611
				c7.028-38.463,38.691-20.381,41.774-15.018C299.082,79.586,306.135,86.099,298.69,106.405z"/>
			
				<ellipse transform="matrix(-0.962 -0.2731 0.2731 -0.962 564.4838 282.316)" fill="#E89C62" cx="301.893" cy="101.866" rx="4.866" ry="7.994"/>
			<path fill="#CE814D" d="M295.999,74.222c-1.355-2.357-8.229-7.169-16.107-8.56c8.385,6.827,13.535,17.967,12.789,28.626
				c-1.218,17.415-14.842,28.732-31.05,30.396c2.419,1.763,4.399,2.166,4.399,2.166c25.468,3.508,32.659-20.446,32.659-20.446
				C306.135,86.099,299.082,79.586,295.999,74.222z"/>
			<path fill="#FFFFFF" d="M259.902,110.416h16.05C275.952,110.416,262.296,120.048,259.902,110.416z"/>
			<g>
				<path fill="#CE814D" d="M260.775,114.697c0,0,0.12,0.195,0.404,0.441c0.135,0.128,0.327,0.254,0.543,0.384
					c0.22,0.13,0.487,0.232,0.776,0.337c0.303,0.073,0.621,0.168,0.978,0.194c0.348,0.062,0.73,0.036,1.117,0.051
					c0.39-0.01,0.796-0.067,1.206-0.1c0.411-0.076,0.83-0.124,1.244-0.222c0.416-0.097,0.833-0.193,1.242-0.288
					c0.403-0.131,0.808-0.232,1.197-0.345c0.392-0.101,0.76-0.243,1.118-0.351c0.354-0.119,0.695-0.219,1.011-0.312
					c1.232-0.446,2.105-0.669,2.105-0.669s-0.72,0.523-1.876,1.195c-0.296,0.153-0.619,0.317-0.966,0.479
					c-0.348,0.159-0.703,0.359-1.103,0.489c-0.395,0.142-0.799,0.305-1.219,0.441c-0.43,0.112-0.868,0.225-1.305,0.339
					c-0.443,0.092-0.901,0.135-1.343,0.202c-0.45,0.033-0.898,0.036-1.33,0.019c-0.435-0.04-0.852-0.079-1.242-0.199
					c-0.393-0.077-0.745-0.253-1.06-0.399c-0.31-0.173-0.574-0.358-0.78-0.558c-0.207-0.195-0.363-0.388-0.466-0.561
					c-0.115-0.164-0.166-0.317-0.206-0.414C260.786,114.75,260.775,114.697,260.775,114.697z"/>
			</g>
			<path fill="#2E3135" d="M267.246,85.705c0,0-1.311-3.044,1.444-3.044c2.756,0,13.406-1.664,14.078,5.092
				C282.768,87.753,274.904,84.588,267.246,85.705z"/>
			<path fill="#2E3135" d="M262.176,86.191c0,0,0.5-2.749-0.714-2.93c-1.214-0.181-5.591-1.317-6.426,3.938
				C255.036,87.199,258.966,84.584,262.176,86.191z"/>
			<ellipse fill="#2E3135" cx="271.2" cy="93.198" rx="1.765" ry="3.041"/>
			<ellipse fill="#2E3135" cx="259.902" cy="92.948" rx="1.765" ry="3.041"/>
			<path fill="#BC672E" d="M263.477,91.846c0,0-7.394,4.957-7.606,12.255c0,0,3.351,2.793,5.958,2.421
				C264.436,106.149,266.456,91.288,263.477,91.846z"/>
			<path fill="#D84E5B" d="M287.767,134.41c0,0,5.701-16.607,16.599-19.137l3.368,3.204L287.767,134.41z"/>
			<path fill="#566B96" d="M290.384,130.722c0,0,9.745-13.659,23.879-11.485c12.142,1.868,19.25,3.993,40.53,22.441l-8.699,3.206
				C346.093,144.884,318.346,115.987,290.384,130.722z"/>
			<path fill="#374A6D" d="M287.767,134.41c0,0,9.883-16.588,22.578-14.007c12.695,2.582,10.42,0.304,34.833,19.667l-11.113-1.167
				C334.066,138.903,307.734,114.403,287.767,134.41z"/>
			<g>
				<g>
					<path fill="#D84E5B" d="M336.506,385.16l-18.883,3.541l2.141,5.096l-15.179,1.864c0,0-13.955,4.385-12.892,16.346l46.828-4.159
						l-1-11.264L336.506,385.16z"/>
				</g>
				<g>
					<path fill="#AA293C" d="M331.182,403.789c-0.115,1.647-0.348,3.236-0.677,4.771l8.014-0.712l-1-11.264l-1.013-11.424
						l-8.873,1.664C330.259,392.114,331.585,398.021,331.182,403.789z"/>
				</g>
				<g>
					
						<rect x="291.484" y="407.335" transform="matrix(0.9961 -0.0885 0.0885 0.9961 -34.9171 29.4699)" fill="#FFFFFF" width="47.012" height="2.598"/>
				</g>
				<g>
					<g>
						
							<rect x="307.927" y="394.744" transform="matrix(0.9961 -0.0884 0.0884 0.9961 -33.9607 28.9099)" fill="#FFFFFF" width="2.603" height="5.826"/>
					</g>
					<g>
						
							<rect x="312.677" y="394.322" transform="matrix(0.9961 -0.0884 0.0884 0.9961 -33.9047 29.3282)" fill="#FFFFFF" width="2.603" height="5.826"/>
					</g>
					<g>
						
							<rect x="317.424" y="393.9" transform="matrix(0.9961 -0.0885 0.0885 0.9961 -33.8514 29.7489)" fill="#FFFFFF" width="2.602" height="5.826"/>
					</g>
				</g>
				<path fill="#FFFFFF" d="M303.852,395.555c-2.71,0.989-14.002,5.773-13.047,16.53l14.401-1.279L303.852,395.555z"/>
			</g>
			<path fill="#374A6D" d="M399.569,207.848c-7.632,3.32-19.035-10.435-19.035-10.435c-12.854-34.298-24.066-56.283-31.668-69.263
				l-25.885-4.344c0,0,20.219,20.718,44.04,84.279c0,0,11.403,13.756,19.035,10.435c6.385-2.778,18.377-6.886,21.294-13.986
				C404.495,205.831,401.715,206.915,399.569,207.848z"/>
			<g>
				<path fill="#566B96" d="M367.021,203.987c-34.95-10.998-63.202-34.989-63.46-35.204l2.3-3.652
					c0.252,0.21,36.168,25.856,66.401,31.356L367.021,203.987z"/>
			</g>
			<path fill="#374A6D" d="M304.585,167.157l-1.024,1.625c0.258,0.215,28.51,24.206,63.46,35.204l0.713-1.02
				C333.061,191.895,304.841,167.371,304.585,167.157z"/>
			<g>
				<g>
					<path fill="#566B96" d="M350.919,128.237c-0.66-0.939-1.105-2.073-1.19-3.218c0.009,0.5,0.018,1,0.027,1.5
						c-0.001-0.083-0.002-0.166-0.003-0.249c0.002,0.5,0.005,1,0.007,1.5c0.169-2.882,3.42-3.394,5.738-3.547
						c2.743-0.181,6.709,0.158,6.939,3.615c-0.012-0.932-0.024-1.863-0.036-2.795c-0.006,2.816-1.939,5.742-3.649,7.867
						c-0.49,0.609,0.512,2.406,0.034,3c1.58-1.963,2.989-4.303,3.534-6.779c0.633-2.874,0.441-6.545-2.722-7.576
						c-3.076-1.003-9.894-0.8-9.874,3.655c0.01,2.16-0.067,4.182,1.228,6.027C350.484,130.569,351.398,128.918,350.919,128.237
						L350.919,128.237z"/>
				</g>
			</g>
			<path fill="#435B82" d="M382.012,178.737c0,0,3,20.569,15.5,21.285s4-21.285,4-21.285S388.676,173.47,382.012,178.737z"/>
			<path fill="#374A6D" d="M380.262,174.696c0,0,11.5-2.291,20,0l1.25,4.041c0,0-10.25-2.75-19.5,0L380.262,174.696z"/>
			<path fill="#374A6D" d="M367.734,149.437c0,0,8.159-1.146,14.19,0l0.887,2.02c0,0-7.272-1.375-13.835,0L367.734,149.437z"/>
			<path fill="#374A6D" d="M370.98,154.607c0,0,8.159-1.145,14.19,0l0.887,2.02c0,0-7.272-1.375-13.835,0L370.98,154.607z"/>
			<path fill="#2E3135" d="M259.038,72.7c0,0-5.153-7.4,1.408-17.391l1.508,7.77c0,0-1.141-12.58,20.13-14.431
				c0,0-6.235,1.48-8.619,6.29c0,0,9.303-7.564,21.98-1.48c12.677,6.084,11.245,20.62,27.198,23.21l-6.938,2.237l7.946,3.151
				c0,0-4.708,2.539-6.91,4.703c-2.478,2.436-0.376,18.08-13.077,28.705l-5.463-8.069c0,0,5.888,4.525,7.722-8.426
				c0,0-2.201-10.36-7.702,0l-0.833,3.262l-5.366-0.707c0,0,0.473-7.628-0.053-11.328l-2.612-1.587l-1.038-10.36
				C288.319,78.251,265.764,83.431,259.038,72.7z"/>
			
				<ellipse transform="matrix(-0.962 -0.2731 0.2731 -0.962 564.4838 282.316)" fill="#CE814D" cx="301.893" cy="101.866" rx="4.866" ry="7.994"/>
			<g>
				<path fill="#2E3135" d="M273.718,54.98c1.228-1.308,2.735-2.364,4.349-3.214c1.617-0.857,3.379-1.459,5.199-1.856
					c0.916-0.166,1.843-0.287,2.778-0.347c0.936-0.052,1.877-0.051,2.814,0.029l1.4,0.167l1.386,0.259
					c0.912,0.214,1.834,0.428,2.706,0.773c0.893,0.294,1.735,0.7,2.592,1.073c0.82,0.438,1.671,0.831,2.446,1.339
					c0.797,0.48,1.547,1.018,2.289,1.566c0.758,0.529,1.436,1.148,2.156,1.719c0.688,0.604,1.336,1.252,1.991,1.886
					c0.62,0.667,1.257,1.318,1.858,1.997c0.585,0.693,1.157,1.396,1.714,2.107l1.601,2.18l-0.059-0.069
					c0.384,0.44,0.842,0.905,1.291,1.334c0.456,0.433,0.929,0.849,1.418,1.244c0.985,0.775,2.012,1.51,3.13,2.045
					c0.558,0.267,1.136,0.487,1.73,0.634c0.593,0.155,1.205,0.218,1.815,0.173c0.306-0.015,0.61-0.074,0.906-0.158
					c0.301-0.078,0.587-0.201,0.878-0.328c0.273-0.156,0.558-0.306,0.808-0.51c0.271-0.179,0.49-0.42,0.737-0.637
					c-0.202,0.254-0.38,0.538-0.62,0.767c-0.218,0.253-0.48,0.46-0.742,0.677c-0.281,0.186-0.564,0.382-0.884,0.513
					c-0.312,0.141-0.643,0.258-0.982,0.326c-0.677,0.154-1.386,0.184-2.076,0.109c-0.69-0.082-1.363-0.25-2.013-0.468
					c-1.302-0.442-2.513-1.083-3.642-1.827c-0.565-0.373-1.112-0.769-1.645-1.185c-0.536-0.423-1.04-0.84-1.564-1.335l-0.06-0.069
					l-1.773-1.922l-1.833-1.845c-0.613-0.608-1.255-1.183-1.879-1.775l-1.961-1.66c-0.68-0.512-1.323-1.08-2.029-1.547
					c-0.693-0.489-1.391-0.968-2.122-1.386c-0.704-0.469-1.454-0.84-2.186-1.252c-0.759-0.347-1.506-0.732-2.292-1.006
					c-0.774-0.311-1.565-0.562-2.361-0.803l-1.208-0.308l-1.225-0.227c-0.823-0.107-1.649-0.215-2.485-0.255
					c-0.835-0.036-1.674-0.015-2.514,0.045c-0.838,0.073-1.684,0.161-2.519,0.331c-0.837,0.16-1.667,0.377-2.498,0.615
					C276.895,53.428,275.256,54.073,273.718,54.98z"/>
			</g>
			<g>
				<path fill="#2E3135" d="M275.952,57.028c1.316-1.22,2.891-2.17,4.56-2.907c1.672-0.743,3.472-1.223,5.315-1.493
					c0.925-0.102,1.858-0.16,2.796-0.154c0.937,0.013,1.876,0.079,2.806,0.223l1.386,0.263l1.365,0.353
					c0.895,0.277,1.801,0.554,2.646,0.957c0.871,0.355,1.682,0.817,2.512,1.249c0.788,0.493,1.61,0.944,2.348,1.505
					c0.762,0.533,1.474,1.122,2.176,1.72c0.72,0.58,1.354,1.245,2.033,1.863c0.645,0.65,1.247,1.341,1.856,2.018
					c0.572,0.708,1.163,1.402,1.716,2.12c0.536,0.731,1.058,1.473,1.565,2.22l1.447,2.285l-0.054-0.073
					c0.352,0.466,0.777,0.961,1.197,1.42c0.426,0.463,0.869,0.911,1.329,1.339c0.929,0.841,1.903,1.645,2.982,2.256
					c0.538,0.305,1.099,0.564,1.682,0.752c0.581,0.196,1.187,0.301,1.798,0.298c0.306,0.006,0.614-0.032,0.915-0.096
					c0.306-0.057,0.599-0.16,0.898-0.266c0.283-0.137,0.578-0.267,0.841-0.453c0.283-0.16,0.517-0.386,0.779-0.585
					c-0.219,0.239-0.416,0.51-0.672,0.722c-0.235,0.237-0.511,0.426-0.787,0.624c-0.293,0.167-0.589,0.342-0.917,0.451
					c-0.321,0.119-0.66,0.213-1.002,0.258c-0.686,0.107-1.396,0.089-2.079-0.034c-0.682-0.129-1.342-0.343-1.977-0.605
					c-1.269-0.53-2.432-1.254-3.508-2.074c-0.538-0.411-1.057-0.843-1.559-1.295c-0.506-0.459-0.979-0.91-1.468-1.44l-0.055-0.073
					l-1.636-2.039l-1.702-1.967c-0.57-0.649-1.171-1.267-1.752-1.9l-1.842-1.791c-0.643-0.558-1.245-1.168-1.918-1.683
					c-0.658-0.536-1.321-1.062-2.022-1.529c-0.67-0.516-1.393-0.938-2.095-1.4c-0.733-0.398-1.452-0.834-2.217-1.161
					c-0.751-0.363-1.523-0.668-2.3-0.964l-1.184-0.39l-1.207-0.311c-0.814-0.163-1.631-0.328-2.462-0.425
					c-0.831-0.093-1.669-0.131-2.511-0.129c-0.841,0.015-1.691,0.045-2.536,0.157c-0.846,0.102-1.689,0.261-2.535,0.442
					C279.229,55.699,277.549,56.229,275.952,57.028z"/>
			</g>
			<g>
				<path fill="#BC672E" d="M304.812,98.177c-0.236-0.359-0.496-0.697-0.803-0.962c-0.157-0.129-0.322-0.233-0.492-0.307
					c-0.174-0.06-0.339-0.095-0.503-0.082c-0.162,0.031-0.319,0.063-0.464,0.173c-0.153,0.069-0.285,0.216-0.422,0.336
					c-0.138,0.121-0.245,0.301-0.369,0.445c-0.123,0.146-0.216,0.337-0.328,0.5c-0.229,0.324-0.382,0.722-0.577,1.077
					c-0.115,0.213-0.17,0.35-0.252,0.549c-0.08,0.182-0.136,0.376-0.206,0.563c-0.112,0.384-0.207,0.769-0.272,1.157
					c-0.018,0.194-0.049,0.389-0.059,0.582l0.007,0.577l-0.423-0.426c0.575,0.096,1.1,0.235,1.639,0.508
					c0.133,0.064,0.263,0.154,0.389,0.255c0.13,0.081,0.242,0.24,0.352,0.366c0.08,0.163,0.192,0.338,0.189,0.529
					c0.017,0.197,0.003,0.381-0.075,0.53c-0.052,0.17-0.132,0.304-0.231,0.414c-0.094,0.115-0.174,0.25-0.285,0.332
					c-0.208,0.187-0.417,0.374-0.651,0.507c-0.446,0.306-0.924,0.537-1.404,0.755c0.199-0.175,0.392-0.356,0.595-0.518
					c0.207-0.158,0.38-0.354,0.564-0.531c0.194-0.171,0.329-0.383,0.489-0.566c0.089-0.09,0.122-0.199,0.181-0.295
					c0.067-0.098,0.101-0.196,0.106-0.286c0.037-0.095,0.019-0.17,0.006-0.237c0.005-0.074-0.07-0.123-0.095-0.188
					c-0.078-0.053-0.112-0.122-0.216-0.168c-0.085-0.053-0.175-0.103-0.285-0.141c-0.406-0.176-0.913-0.278-1.372-0.32l-0.393-0.036
					l-0.03-0.39c-0.036-0.468-0.036-0.934,0.025-1.391c0.059-0.455,0.167-0.899,0.311-1.328c0.083-0.211,0.151-0.426,0.246-0.632
					c0.082-0.193,0.201-0.446,0.294-0.605c0.238-0.378,0.423-0.772,0.708-1.13c0.141-0.179,0.248-0.371,0.42-0.534
					c0.171-0.162,0.308-0.341,0.506-0.483c0.2-0.139,0.375-0.299,0.628-0.381c0.223-0.111,0.502-0.143,0.758-0.137
					c0.268,0.024,0.511,0.114,0.717,0.251c0.199,0.144,0.362,0.31,0.503,0.489C304.515,97.358,304.699,97.761,304.812,98.177z"/>
			</g>
		</g>
	</g>
</g>
<g id="background_2">
</g>
<g id="designed_by_freepik">
</g>
</svg>
