<?xml version="1.0" encoding="utf-8"?>
<!-- Generator: Adobe Illustrator 17.0.0, SVG Export Plug-In . SVG Version: 6.00 Build 0)  -->
<!DOCTYPE svg PUBLIC "-//W3C//DTD SVG 1.1//EN" "http://www.w3.org/Graphics/SVG/1.1/DTD/svg11.dtd">
<svg version="1.1" id="Layer_1" xmlns="http://www.w3.org/2000/svg" xmlns:xlink="http://www.w3.org/1999/xlink" x="0px" y="0px"
	 width="3797px" height="641px" viewBox="0 0 3797 641" enable-background="new 0 0 3797 641" xml:space="preserve">
<g>
	<g>
		<path fill="#231F20" d="M1186.933,106.644c18.907,16.432,28.364,39.648,28.364,69.638c0,31.298-9.457,55.621-28.364,72.964
			c-18.913,17.348-45.577,26.016-80.005,26.016h-59.858v80.593h-52.424V81.997h112.282
			C1141.355,81.997,1168.02,90.212,1186.933,106.644z M1149.767,216.188c10.563-8.607,15.845-21.383,15.845-38.34
			c0-16.688-5.281-29.208-15.845-37.558c-10.563-8.344-25.76-12.52-45.578-12.52h-57.119v101.328h57.119
			C1124.007,229.098,1139.203,224.794,1149.767,216.188z"/>
		<path fill="#231F20" d="M1457.462,355.855l-47.339-80.984c-2.091,0.263-5.349,0.391-9.78,0.391h-61.814v80.593h-52.424V81.997
			h114.238c35.467,0,62.853,8.216,82.157,24.647c19.299,16.432,28.95,39.648,28.95,69.638c0,21.389-4.633,39.648-13.888,54.771
			c-9.262,15.129-22.759,26.475-40.492,34.037l60.249,90.765H1457.462z M1338.528,229.098h61.814
			c19.817,0,34.947-4.303,45.382-12.91c10.429-8.607,15.649-21.383,15.649-38.34c0-16.688-5.221-29.208-15.649-37.558
			c-10.435-8.344-25.564-12.52-45.382-12.52h-61.814V229.098z"/>
		<path fill="#231F20" d="M1794.891,96.863c22.3,12.263,39.838,29.085,52.62,50.468c12.776,21.389,19.17,45.125,19.17,71.203
			c0,26.083-6.394,49.881-19.17,71.399c-12.782,21.517-30.32,38.536-52.62,51.055c-22.3,12.52-47.014,18.779-74.137,18.779
			c-27.13,0-51.838-6.259-74.138-18.779c-22.3-12.519-39.844-29.538-52.62-51.055c-12.782-21.518-19.17-45.315-19.17-71.399
			c0-26.078,6.388-49.814,19.17-71.203c12.776-21.383,30.32-38.206,52.62-50.468c22.3-12.256,47.008-18.388,74.138-18.388
			C1747.877,78.476,1772.591,84.607,1794.891,96.863z M1674.98,137.747c-14.348,8.216-25.693,19.433-34.037,33.646
			c-8.351,14.218-12.52,29.929-12.52,47.143s4.236,32.998,12.715,47.338c8.473,14.347,19.818,25.692,34.037,34.037
			c14.213,8.35,29.666,12.519,46.36,12.519c16.432,0,31.689-4.169,45.773-12.519c14.084-8.344,25.234-19.689,33.45-34.037
			c8.215-14.341,12.323-30.125,12.323-47.338s-4.108-32.924-12.323-47.143c-8.216-14.213-19.366-25.43-33.45-33.646
			s-29.342-12.324-45.773-12.324C1704.842,125.423,1689.321,129.531,1674.98,137.747z"/>
		<path fill="#231F20" d="M1940.228,81.997h52.424v226.52h118.15v47.338h-170.574V81.997z"/>
		<path fill="#231F20" d="M2383.868,355.855l-24.256-57.901h-133.8l-24.256,57.901h-54.381l120.106-273.858h54.381l118.541,273.858
			H2383.868z M2244.592,252.962h96.241l-47.729-115.021L2244.592,252.962z"/>
		<path fill="#231F20" d="M2593.561,81.997h223.39v46.556h-85.287v227.302h-52.815V128.553h-85.287V81.997z"/>
		<path fill="#231F20" d="M2881.502,81.997h200.699v45.773h-148.275v67.682h133.018v45.773h-133.018v68.856h152.97v45.773h-205.394
			V81.997z"/>
		<path fill="#231F20" d="M3331.605,134.812c-13.173-6.259-26.542-9.389-40.101-9.389c-16.957,0-32.472,4.047-46.556,12.128
			c-14.084,8.087-25.173,19.237-33.255,33.45c-8.087,14.219-12.128,29.801-12.128,46.751c0,16.958,4.041,32.539,12.128,46.752
			c8.082,14.218,19.171,25.43,33.255,33.645c14.084,8.216,29.599,12.324,46.556,12.324c13.039,0,26.145-2.867,39.318-8.607
			c13.167-5.734,24.843-13.693,35.015-23.865l30.907,34.428c-14.348,14.61-31.042,26.151-50.077,34.624
			c-19.042,8.479-38.34,12.715-57.901,12.715c-26.347,0-50.469-6.259-72.377-18.779c-21.909-12.519-39.123-29.538-51.642-51.055
			c-12.52-21.518-18.779-45.315-18.779-71.399c0-26.078,6.388-49.814,19.17-71.203c12.776-21.383,30.186-38.206,52.229-50.468
			c22.037-12.256,46.489-18.388,73.355-18.388c19.562,0,38.731,3.913,57.51,11.737c18.779,7.825,34.819,18.65,48.121,32.472
			l-30.516,38.34C3356.186,149.813,3344.772,141.072,3331.605,134.812z"/>
		<path fill="#231F20" d="M3467.165,81.997h52.424v116.977h136.538V81.997h52.425v273.858h-52.425V244.747h-136.538v111.108h-52.424
			V81.997z"/>
	</g>
	<g>
		<path fill="#231F20" d="M1040.637,479.966c-6.146-2.115-11.3-3.172-15.46-3.172c-3.291,0-5.879,0.63-7.766,1.888
			c-1.887,1.26-2.831,3.097-2.831,5.514c0,2.318,0.821,4.256,2.468,5.816c1.645,1.563,3.677,2.821,6.097,3.777
			c2.418,0.958,6,2.19,10.742,3.701c7.063,2.115,12.895,4.23,17.492,6.345c4.595,2.115,8.539,5.363,11.83,9.744
			c3.289,4.381,4.936,10.098,4.936,17.146c0,7.051-1.792,13.067-5.371,18.053c-3.581,4.985-8.491,8.739-14.733,11.255
			c-6.242,2.517-13.188,3.777-20.831,3.777c-8.419,0-16.815-1.537-25.185-4.608c-8.372-3.07-15.605-7.274-21.702-12.614
			l10.307-21.603c5.128,4.735,11.2,8.611,18.218,11.632c7.016,3.021,13.232,4.532,18.653,4.532c3.967,0,7.088-0.755,9.362-2.266
			c2.272-1.511,3.411-3.725,3.411-6.647c0-2.417-0.848-4.43-2.54-6.042c-1.694-1.61-3.824-2.894-6.387-3.853
			c-2.565-0.956-6.17-2.089-10.814-3.399c-6.968-2.014-12.727-4.053-17.274-6.118c-4.55-2.063-8.444-5.186-11.686-9.367
			c-3.243-4.178-4.862-9.744-4.862-16.693c0-6.545,1.669-12.286,5.008-17.222c3.339-4.934,8.079-8.736,14.226-11.406
			c6.145-2.667,13.282-4.003,21.411-4.003c7.354,0,14.611,1.083,21.774,3.248c7.16,2.167,13.45,5.061,18.87,8.687l-10.016,22.056
			C1052.563,484.8,1046.781,482.081,1040.637,479.966z"/>
		<path fill="#231F20" d="M1107.047,456.248h26.564v105.9h-26.564V456.248z"/>
		<path fill="#231F20" d="M1178.754,456.248h28.887l29.468,61.939l29.322-61.939h28.887v105.9h-23.516l-0.146-67.075l-25.983,56.5
			h-17.129l-26.129-56.5v67.075h-23.661V456.248z"/>
		<path fill="#231F20" d="M1415.365,465.992c7.161,6.496,10.742,15.636,10.742,27.419c0,12.489-3.581,22.184-10.742,29.081
			c-7.162,6.899-17.227,10.348-30.193,10.348h-18.145v29.308h-26.564v-105.9h44.709
			C1398.139,456.248,1408.203,459.496,1415.365,465.992z M1396.422,506.555c2.951-2.818,4.428-6.897,4.428-12.237
			c0-5.136-1.477-9.088-4.428-11.859c-2.953-2.769-7.138-4.155-12.557-4.155h-16.838v32.48h16.838
			C1389.284,510.785,1393.469,509.375,1396.422,506.555z"/>
		<path fill="#231F20" d="M1464.573,456.248h26.564v82.333h43.112v23.567h-69.677V456.248z"/>
		<path fill="#231F20" d="M1571.7,456.248h26.564v105.9H1571.7V456.248z"/>
		<path fill="#231F20" d="M1705.245,481.854c-4.55-2.568-9.05-3.852-13.5-3.852c-5.13,0-9.798,1.336-14.008,4.003
			c-4.209,2.669-7.525,6.345-9.943,11.028c-2.42,4.683-3.629,9.895-3.629,15.636s1.209,10.953,3.629,15.636
			c2.418,4.683,5.734,8.361,9.943,11.028c4.21,2.669,8.878,4.003,14.008,4.003c4.16,0,8.515-1.107,13.064-3.324
			c4.548-2.214,8.612-5.235,12.193-9.064l15.532,17.373c-5.516,6.043-12.073,10.854-19.669,14.427
			c-7.598,3.574-15.121,5.363-22.572,5.363c-10.066,0-19.161-2.417-27.29-7.251c-8.129-4.835-14.517-11.43-19.161-19.791
			c-4.646-8.358-6.968-17.725-6.968-28.099c0-10.273,2.37-19.538,7.112-27.797c4.741-8.257,11.25-14.753,19.524-19.488
			c8.274-4.732,17.539-7.1,27.798-7.1c7.549,0,15,1.638,22.355,4.91c7.353,3.274,13.595,7.73,18.726,13.37l-15.388,19.337
			C1713.712,487.874,1709.793,484.423,1705.245,481.854z"/>
		<path fill="#231F20" d="M1769.26,456.248h26.564v105.9h-26.564V456.248z"/>
		<path fill="#231F20" d="M1832.112,456.248h87.241v22.812h-30.484v83.089h-26.563V479.06h-30.193V456.248z"/>
		<path fill="#231F20" d="M2045.643,456.248l-36.726,72.061v33.84h-26.564v-33.084l-37.451-72.816h26.564l24.097,45.472
			l23.516-45.472H2045.643z"/>
		<path fill="#231F20" d="M2262.509,456.248h27.29l-34.402,105.9h-27.29l-19.307-72.061l-19.597,72.061h-27.29l-34.258-105.9h28.597
			l20.032,77.348l20.031-77.348h25.984l20.322,77.348L2262.509,456.248z"/>
		<path fill="#231F20" d="M2324.781,456.248h26.564v105.9h-26.564V456.248z"/>
		<path fill="#231F20" d="M2387.634,456.248h87.241v22.812h-30.484v83.089h-26.563V479.06h-30.193V456.248z"/>
		<path fill="#231F20" d="M2511.02,456.248h26.564v43.206h41.08v-43.206h26.564v105.9h-26.564v-40.638h-41.08v40.638h-26.564
			V456.248z"/>
		<path fill="#231F20" d="M2782.9,465.992c7.161,6.496,10.742,15.636,10.742,27.419c0,12.489-3.581,22.184-10.742,29.081
			c-7.162,6.899-17.227,10.348-30.193,10.348h-18.145v29.308h-26.564v-105.9h44.709
			C2765.674,456.248,2775.738,459.496,2782.9,465.992z M2763.957,506.555c2.951-2.818,4.428-6.897,4.428-12.237
			c0-5.136-1.477-9.088-4.428-11.859c-2.953-2.769-7.138-4.155-12.557-4.155h-16.838v32.48h16.838
			C2756.819,510.785,2761.004,509.375,2763.957,506.555z"/>
		<path fill="#231F20" d="M2893.222,562.148l-14.807-29.308h-0.58h-19.161v29.308h-26.564v-105.9h45.726
			c13.45,0,23.879,3.248,31.282,9.744c7.402,6.496,11.104,15.636,11.104,27.419c0,7.957-1.549,14.831-4.646,20.621
			c-3.098,5.792-7.598,10.298-13.5,13.521l21.193,34.595H2893.222z M2858.674,510.785h19.306c5.419,0,9.604-1.409,12.557-4.23
			c2.951-2.818,4.428-6.897,4.428-12.237c0-5.136-1.477-9.088-4.428-11.859c-2.953-2.769-7.138-4.155-12.557-4.155h-19.306V510.785z
			"/>
		<path fill="#231F20" d="M2993.092,534.502c3.774,4.029,8.564,6.043,14.371,6.043c5.709,0,10.329-1.987,13.862-5.967
			c3.532-3.978,5.299-9.34,5.299-16.089v-62.241h26.564v62.241c0,9.166-1.864,17.198-5.589,24.096
			c-3.727,6.899-9.05,12.213-15.968,15.938c-6.92,3.726-15.023,5.59-24.314,5.59c-9.29,0-17.444-1.864-24.459-5.59
			c-7.018-3.725-12.437-9.038-16.258-15.938c-3.824-6.897-5.734-14.93-5.734-24.096v-62.241h26.564v62.241
			C2987.431,525.136,2989.317,530.476,2993.092,534.502z"/>
		<path fill="#231F20" d="M3168.809,462.896c8.177,4.433,14.538,10.65,19.088,18.657c4.548,8.007,6.823,17.199,6.823,27.57
			c0,10.375-2.3,19.59-6.896,27.646c-4.598,8.059-11.082,14.302-19.451,18.732c-8.372,4.434-17.978,6.647-28.814,6.647h-42.822
			v-105.9h43.838C3151.219,456.248,3160.63,458.465,3168.809,462.896z M3154.945,536.013c3.967-2.516,7.063-6.092,9.29-10.726
			c2.226-4.631,3.339-9.918,3.339-15.862c0-6.042-1.186-11.38-3.557-16.013c-2.372-4.631-5.638-8.233-9.798-10.802
			c-4.162-2.568-8.904-3.852-14.226-3.852h-16.693v61.032h18C3146.429,539.79,3150.977,538.532,3154.945,536.013z"/>
		<path fill="#231F20" d="M3233.33,456.248h80.273v22.056h-53.709v19.791h48.483V520l-48.483,0.151v19.941h55.161v22.056h-81.726
			V456.248z"/>
		<path fill="#231F20" d="M3426.246,456.248h24.678v105.9h-23.226l-46.161-63.298v63.298h-24.822v-105.9h23.371L3426.392,520
			L3426.246,456.248z"/>
		<path fill="#231F20" d="M3558.052,481.854c-4.55-2.568-9.05-3.852-13.5-3.852c-5.13,0-9.798,1.336-14.008,4.003
			c-4.209,2.669-7.525,6.345-9.943,11.028c-2.42,4.683-3.629,9.895-3.629,15.636s1.209,10.953,3.629,15.636
			c2.418,4.683,5.734,8.361,9.943,11.028c4.21,2.669,8.878,4.003,14.008,4.003c4.16,0,8.515-1.107,13.064-3.324
			c4.548-2.214,8.612-5.235,12.193-9.064l15.532,17.373c-5.516,6.043-12.073,10.854-19.669,14.427
			c-7.598,3.574-15.121,5.363-22.572,5.363c-10.066,0-19.161-2.417-27.29-7.251c-8.129-4.835-14.517-11.43-19.161-19.791
			c-4.646-8.358-6.968-17.725-6.968-28.099c0-10.273,2.37-19.538,7.112-27.797c4.741-8.257,11.25-14.753,19.524-19.488
			c8.274-4.732,17.539-7.1,27.798-7.1c7.549,0,15,1.638,22.355,4.91c7.353,3.274,13.595,7.73,18.726,13.37l-15.388,19.337
			C3566.519,487.874,3562.6,484.423,3558.052,481.854z"/>
		<path fill="#231F20" d="M3622.066,456.248h80.273v22.056h-53.709v19.791h48.483V520l-48.483,0.151v19.941h55.161v22.056h-81.726
			V456.248z"/>
	</g>
</g>
<g>
	<g>
		<polygon points="454.404,627.747 519.672,524.011 332.36,611.894 		"/>
	</g>
	<g>
		<polygon points="326.733,536.633 332.36,611.894 254.796,562.562 		"/>
	</g>
	<g>
		<polygon points="426.016,567.952 326.733,536.633 332.36,611.894 		"/>
	</g>
	<g>
		<path fill="#383838" d="M492.219,501.141l23.926,22.315l-81.371,38.178L492.219,501.141 M492.134,498.327l-66.118,69.625
			l93.656-43.941L492.134,498.327L492.134,498.327z"/>
	</g>
	<g>
		<polygon fill="#1994E0" points="450.176,338.088 426.016,567.952 492.134,498.327 		"/>
	</g>
	<g>
		<polygon fill="#1769E2" points="367.663,465.648 450.176,338.088 410.163,262.144 		"/>
	</g>
	<g>
		<polygon fill="#1994E0" points="426.016,567.952 367.663,465.648 326.733,536.633 		"/>
	</g>
	<g>
		<polygon fill="#1769E2" points="275.462,406.799 367.663,465.648 278.912,479.938 		"/>
	</g>
	<g>
		<polygon points="326.733,536.633 278.912,479.938 254.796,562.562 		"/>
	</g>
	<g>
		<polygon points="231.45,498.652 275.462,406.799 278.912,479.938 		"/>
	</g>
	<g>
		<polygon points="254.796,562.562 231.45,498.652 278.912,479.938 		"/>
	</g>
	<g>
		<polygon fill="#1769E2" points="275.462,406.799 410.163,262.144 309.521,264.774 		"/>
	</g>
	<g>
		<polygon fill="#1994E0" points="184.173,453.965 309.521,264.774 275.462,406.799 		"/>
	</g>
	<g>
		<polygon points="199.765,493.794 275.462,406.799 231.876,499.816 		"/>
	</g>
	<g>
		<polygon points="185.435,453.313 199.765,493.794 96.939,456.803 		"/>
	</g>
	<g>
		<polygon points="121.491,422.653 96.939,456.803 185.435,453.313 		"/>
	</g>
	<g>
		<polygon fill="#1769E2" points="309.521,264.774 121.491,422.653 185.435,453.313 		"/>
	</g>
	<g>
		<polygon points="308.105,227.358 308.446,265.563 410.163,262.144 		"/>
	</g>
	<g>
		<polygon points="232.919,206.052 310.039,265.479 308.105,227.358 		"/>
	</g>
	<g>
		<polygon fill="#1534E3" points="121.491,422.653 232.919,206.052 310.039,265.479 		"/>
	</g>
	<g>
		<polygon fill="#FFFFFF" points="95.782,361.72 121.491,422.653 232.919,206.052 		"/>
	</g>
	<g>
		<polygon fill="#1534E3" points="163.981,206.211 95.782,361.72 232.919,206.052 		"/>
	</g>
	<g>
		<polygon points="15.457,275.958 163.981,206.211 39.472,352.608 		"/>
	</g>
	<g>
		<polygon fill="#1769E2" points="95.782,361.72 39.472,352.608 163.981,206.211 		"/>
	</g>
	<g>
		<polygon points="121.491,422.653 96.939,456.803 95.782,361.72 		"/>
	</g>
	<g>
		<polygon points="39.472,352.608 96.939,456.803 95.782,361.72 		"/>
	</g>
	<g>
		<polygon points="519.672,524.011 525.061,484.373 543.158,533.167 		"/>
	</g>
	<g>
		<polygon fill="#1534E3" points="492.134,498.327 519.672,524.011 525.061,484.373 450.176,338.088 		"/>
	</g>
	<g>
		<polygon fill="#1534E3" points="410.163,262.144 450.176,338.088 470.145,331.493 		"/>
	</g>
	<g>
		<polygon fill="#1769E2" points="450.389,278.387 410.163,262.144 470.145,331.493 		"/>
	</g>
	<g>
		<polygon fill="#1534E3" points="432.675,231.824 450.389,278.387 410.163,262.144 		"/>
	</g>
	<g>
		<polygon points="308.621,138.075 317.622,157.518 431.79,229.394 		"/>
	</g>
	<path fill="none" stroke="#383838" stroke-width="2" stroke-miterlimit="10" d="M504.266,319.205"/>
	<path fill="none" stroke="#383838" stroke-width="2" stroke-miterlimit="10" d="M524.36,312.705"/>
	<path fill="none" stroke="#383838" stroke-width="2" stroke-miterlimit="10" d="M524.36,312.705"/>
	<path fill="none" stroke="#383838" stroke-width="2" stroke-miterlimit="10" d="M524.36,312.705"/>
	<path fill="none" stroke="#383838" stroke-width="2" stroke-miterlimit="10" d="M524.36,312.705"/>
	<g>
		<polygon points="658.552,552.978 552.797,511.49 729.525,466.873 		"/>
	</g>
	<g>
		<polygon points="687.766,404.763 729.525,466.873 750.912,381.525 		"/>
	</g>
	<g>
		<polygon points="641.161,489.181 687.766,404.763 729.525,466.873 		"/>
	</g>
	<g>
		<polygon fill="#1534E3" points="555.454,474.815 552.797,511.49 641.161,489.181 		"/>
	</g>
	<g>
		<polygon fill="#1994E0" points="486.332,324.464 641.161,489.181 555.454,474.815 		"/>
	</g>
	<g>
		<polygon fill="#1769E2" points="617.863,374.118 486.332,324.464 466.856,241.045 		"/>
	</g>
	<g>
		<polygon fill="#1994E0" points="641.161,489.181 617.863,374.118 687.766,404.763 		"/>
	</g>
	<g>
		<polygon fill="#1769E2" points="643.161,272.503 617.863,374.118 685.075,331.642 		"/>
	</g>
	<g>
		<polygon points="687.766,404.763 685.075,331.642 750.912,381.525 		"/>
	</g>
	<g>
		<polygon points="727.707,317.565 643.161,272.503 685.075,331.642 		"/>
	</g>
	<g>
		<polygon points="750.912,381.525 727.707,317.565 685.075,331.642 		"/>
	</g>
	<g>
		<polygon fill="#1769E2" points="643.161,272.503 466.856,241.045 534.871,182.289 		"/>
	</g>
	<g>
		<polygon fill="#1994E0" points="731.911,254.14 534.871,182.289 643.161,272.503 		"/>
	</g>
	<g>
		<polygon points="745.684,294.631 643.161,272.503 728.13,318.73 		"/>
	</g>
	<g>
		<polygon points="730.683,254.394 745.684,294.631 791.201,203.648 		"/>
	</g>
	<g>
		<polygon points="754.364,191.842 791.201,203.648 730.683,254.394 		"/>
	</g>
	<g>
		<polygon fill="#1769E2" points="534.871,182.289 754.364,191.842 730.683,254.394 		"/>
	</g>
	<g>
		<polygon points="513.198,152.245 536.057,182.255 466.856,241.045 		"/>
	</g>
	<g>
		<polygon points="549.949,90.198 534.955,183.152 513.198,152.245 		"/>
	</g>
	<g>
		<polygon fill="#1534E3" points="754.364,191.842 549.949,90.198 534.955,183.152 		"/>
	</g>
	<g>
		<polygon fill="#FFFFFF" points="734.516,128.774 754.364,191.842 549.949,90.198 		"/>
	</g>
	<g>
		<polygon fill="#1534E3" points="595.546,48.669 734.516,128.774 549.949,90.198 		"/>
	</g>
	<g>
		<polygon points="735.715,13.341 595.546,48.669 766.177,87.644 		"/>
	</g>
	<g>
		<polygon fill="#1769E2" points="734.516,128.774 766.177,87.644 595.546,48.669 		"/>
	</g>
	<g>
		<polygon points="754.364,191.842 791.201,203.648 734.516,128.774 		"/>
	</g>
	<g>
		<polygon points="766.177,87.644 791.201,203.648 734.516,128.774 		"/>
	</g>
	<g>
		<polygon points="552.797,511.49 525.061,484.373 543.158,533.167 		"/>
	</g>
	<g>
		<polygon fill="#1534E3" points="555.454,474.815 552.797,511.49 525.061,484.373 486.332,324.464 		"/>
	</g>
	<g>
		<polygon fill="#1534E3" points="466.856,241.045 486.332,324.464 470.145,331.493 		"/>
	</g>
	<g>
		<polygon fill="#1769E2" points="450.12,278.02 466.856,241.045 470.145,331.493 		"/>
	</g>
	<g>
		<polygon fill="#1534E3" points="432.675,231.824 450.12,278.02 466.856,241.045 		"/>
	</g>
	<g>
		<polygon points="458.913,82.908 464.72,103.514 432.794,228.564 		"/>
	</g>
	<path fill="none" stroke="#383838" stroke-width="2" stroke-miterlimit="10" d="M439.222,342.414"/>
	<path fill="none" stroke="#383838" stroke-width="2" stroke-miterlimit="10" d="M422.032,349.485"/>
	<path fill="none" stroke="#383838" stroke-width="2" stroke-miterlimit="10" d="M422.032,349.485"/>
	<path fill="none" stroke="#383838" stroke-width="2" stroke-miterlimit="10" d="M422.032,349.485"/>
	<path fill="none" stroke="#383838" stroke-width="2" stroke-miterlimit="10" d="M422.032,349.485"/>
	<polygon fill="#1534E3" points="466.856,241.045 617.863,374.118 643.161,272.503 	"/>
	<polygon fill="#1534E3" points="486.332,324.464 641.161,489.181 617.863,374.118 	"/>
	<polygon fill="#1534E3" points="687.766,404.763 617.863,374.118 685.075,331.642 	"/>
	<polygon points="643.161,272.503 730.683,254.394 745.684,294.631 	"/>
	<polygon points="185.435,453.313 275.462,406.799 199.765,493.794 	"/>
	<polygon fill="#1534E3" points="410.163,262.144 275.462,406.799 367.663,465.648 	"/>
	<polygon fill="#1534E3" points="450.176,338.088 367.663,465.648 426.016,567.952 	"/>
	<polygon fill="#1534E3" points="367.663,465.648 278.912,479.938 326.733,536.633 	"/>
	<polygon fill="#1534E3" points="492.134,498.327 519.672,524.011 426.016,567.952 	"/>
	<polygon points="450.176,338.088 486.332,324.464 525.061,484.373 	"/>
</g>
</svg>
